HIERARCHY
ROOT hip
{
  OFFSET 0 90.174 2.4664
  CHANNELS 6 Xposition Yposition Zposition Zrotation Xrotation Yrotation
  JOINT abdomen
  {
    OFFSET 0 -1.186 -1.5018
    CHANNELS 6 Xposition Yposition Zposition Zrotation Xrotation Yrotation
    JOINT abdomen2
    {
      OFFSET 0 9.964 0.2134
      CHANNELS 6 Xposition Yposition Zposition Zrotation Xrotation Yrotation
      JOINT chest
      {
        OFFSET 0 13.134 -3.2573
        CHANNELS 6 Xposition Yposition Zposition Zrotation Xrotation Yrotation
        JOINT neck
        {
          OFFSET 0 20.686 -1.6905
          CHANNELS 6 Xposition Yposition Zposition Zrotation Xrotation Yrotation
          JOINT head
          {
            OFFSET 0 7.238 -0.1237
            CHANNELS 6 Xposition Yposition Zposition Zrotation Xrotation Yrotation
            End Site
            {
              OFFSET 0 0 0
            }
          }
        }
        JOINT lCollar
        {
          OFFSET 1.7069 20.075 5.0056
          CHANNELS 6 Xposition Yposition Zposition Zrotation Xrotation Yrotation
          JOINT lShldr
          {
            OFFSET 13.6458 -0.047 -4.849
            CHANNELS 6 Xposition Yposition Zposition Zrotation Xrotation Yrotation
            JOINT lForeArm
            {
              OFFSET 28.3255 -0.9759 2.2888
              CHANNELS 6 Xposition Yposition Zposition Zrotation Xrotation Yrotation
              JOINT lHand
              {
                OFFSET 22.1583 -0.53 10.8316
                CHANNELS 6 Xposition Yposition Zposition Zrotation Xrotation Yrotation
                JOINT lThumb1
                {
                  OFFSET 0.786 0.112 2.5817
                  CHANNELS 6 Xposition Yposition Zposition Zrotation Xrotation Yrotation
                  JOINT lThumb2
                  {
                    OFFSET 0.3601 -0.878 4.2331
                    CHANNELS 6 Xposition Yposition Zposition Zrotation Xrotation Yrotation
                    JOINT lThumb2_End
                    {
                      OFFSET 1.8127 -1.216 2.2227
                      CHANNELS 6 Xposition Yposition Zposition Zrotation Xrotation Yrotation
                      End Site
                      {
                        OFFSET 0.0181 -0.0122 0.0222
                      }
                    }
                  }
                }
                JOINT lCarpal1
                {
                  OFFSET 0.9571 1.114 1.7695
                  CHANNELS 6 Xposition Yposition Zposition Zrotation Xrotation Yrotation
                  JOINT lIndex1
                  {
                    OFFSET 4.1246 0.487 4.1451
                    CHANNELS 6 Xposition Yposition Zposition Zrotation Xrotation Yrotation
                    JOINT lIndex2
                    {
                      OFFSET 3.4052 -1.454 2.7682
                      CHANNELS 6 Xposition Yposition Zposition Zrotation Xrotation Yrotation
                      JOINT lIndex2_End
                      {
                        OFFSET 1.4531 -1.795 1.2713
                        CHANNELS 6 Xposition Yposition Zposition Zrotation Xrotation Yrotation
                        End Site
                        {
                          OFFSET 0.0145 -0.0179 0.0127
                        }
                      }
                    }
                  }
                  JOINT lMid1
                  {
                    OFFSET 5.6954 0.21 2.1184
                    CHANNELS 6 Xposition Yposition Zposition Zrotation Xrotation Yrotation
                    JOINT lMid2
                    {
                      OFFSET 3.9766 -1.54 2.3863
                      CHANNELS 6 Xposition Yposition Zposition Zrotation Xrotation Yrotation
                      JOINT lMid2_End
                      {
                        OFFSET 1.4042 -1.926 1.125
                        CHANNELS 6 Xposition Yposition Zposition Zrotation Xrotation Yrotation
                        End Site
                        {
                          OFFSET 0.014 -0.0193 0.0113
                        }
                      }
                    }
                  }
                }
                JOINT lCarpal2
                {
                  OFFSET 2.0956 0.66 -0.3894
                  CHANNELS 6 Xposition Yposition Zposition Zrotation Xrotation Yrotation
                  JOINT lRing1
                  {
                    OFFSET 5.0395 -0.09 2.4971
                    CHANNELS 6 Xposition Yposition Zposition Zrotation Xrotation Yrotation
                    JOINT lRing2
                    {
                      OFFSET 3.7921 -1.552 1.4806
                      CHANNELS 6 Xposition Yposition Zposition Zrotation Xrotation Yrotation
                      JOINT lRing2_End
                      {
                        OFFSET 1.4655 -1.808 0.9609
                        CHANNELS 6 Xposition Yposition Zposition Zrotation Xrotation Yrotation
                        End Site
                        {
                          OFFSET 0.0147 -0.0181 0.0096
                        }
                      }
                    }
                  }
                  JOINT lPinky1
                  {
                    OFFSET 4.9141 -1.269 0.3591
                    CHANNELS 6 Xposition Yposition Zposition Zrotation Xrotation Yrotation
                    JOINT lPinky2
                    {
                      OFFSET 3.1477 -1.685 0.8462
                      CHANNELS 6 Xposition Yposition Zposition Zrotation Xrotation Yrotation
                      JOINT lPinky2_End
                      {
                        OFFSET 0.8055 -1.585 0.7955
                        CHANNELS 6 Xposition Yposition Zposition Zrotation Xrotation Yrotation
                        End Site
                        {
                          OFFSET 0.0081 -0.0158 0.008
                        }
                      }
                    }
                  }
                }
              }
            }
          }
        }
        JOINT rCollar
        {
          OFFSET -1.7069 20.075 5.0056
          CHANNELS 6 Xposition Yposition Zposition Zrotation Xrotation Yrotation
          JOINT rShldr
          {
            OFFSET -13.6458 -0.047 -4.849
            CHANNELS 6 Xposition Yposition Zposition Zrotation Xrotation Yrotation
            JOINT rForeArm
            {
              OFFSET -28.3255 -0.9759 2.2888
              CHANNELS 6 Xposition Yposition Zposition Zrotation Xrotation Yrotation
              JOINT rHand
              {
                OFFSET -22.1583 -0.53 10.8316
                CHANNELS 6 Xposition Yposition Zposition Zrotation Xrotation Yrotation
                JOINT rThumb1
                {
                  OFFSET -0.786 0.112 2.5817
                  CHANNELS 6 Xposition Yposition Zposition Zrotation Xrotation Yrotation
                  JOINT rThumb2
                  {
                    OFFSET -0.3601 -0.878 4.2331
                    CHANNELS 6 Xposition Yposition Zposition Zrotation Xrotation Yrotation
                    JOINT rThumb2_End
                    {
                      OFFSET -1.8127 -1.216 2.2227
                      CHANNELS 6 Xposition Yposition Zposition Zrotation Xrotation Yrotation
                      End Site
                      {
                        OFFSET -0.0181 -0.0122 0.0222
                      }
                    }
                  }
                }
                JOINT rCarpal1
                {
                  OFFSET -0.9571 1.114 1.7695
                  CHANNELS 6 Xposition Yposition Zposition Zrotation Xrotation Yrotation
                  JOINT rIndex1
                  {
                    OFFSET -4.1246 0.487 4.1451
                    CHANNELS 6 Xposition Yposition Zposition Zrotation Xrotation Yrotation
                    JOINT rIndex2
                    {
                      OFFSET -3.4052 -1.454 2.7682
                      CHANNELS 6 Xposition Yposition Zposition Zrotation Xrotation Yrotation
                      JOINT rIndex2_End
                      {
                        OFFSET -1.4531 -1.795 1.2713
                        CHANNELS 6 Xposition Yposition Zposition Zrotation Xrotation Yrotation
                        End Site
                        {
                          OFFSET -0.0145 -0.018 0.0127
                        }
                      }
                    }
                  }
                  JOINT rMid1
                  {
                    OFFSET -5.6954 0.21 2.1184
                    CHANNELS 6 Xposition Yposition Zposition Zrotation Xrotation Yrotation
                    JOINT rMid2
                    {
                      OFFSET -3.9766 -1.54 2.3863
                      CHANNELS 6 Xposition Yposition Zposition Zrotation Xrotation Yrotation
                      JOINT rMid2_End
                      {
                        OFFSET -1.4042 -1.926 1.125
                        CHANNELS 6 Xposition Yposition Zposition Zrotation Xrotation Yrotation
                        End Site
                        {
                          OFFSET -0.014 -0.0193 0.0113
                        }
                      }
                    }
                  }
                }
                JOINT rCarpal2
                {
                  OFFSET -2.0956 0.66 -0.3894
                  CHANNELS 6 Xposition Yposition Zposition Zrotation Xrotation Yrotation
                  JOINT rRing1
                  {
                    OFFSET -5.0395 -0.09 2.4971
                    CHANNELS 6 Xposition Yposition Zposition Zrotation Xrotation Yrotation
                    JOINT rRing2
                    {
                      OFFSET -3.7921 -1.552 1.4806
                      CHANNELS 6 Xposition Yposition Zposition Zrotation Xrotation Yrotation
                      JOINT rRing2_End
                      {
                        OFFSET -1.4655 -1.808 0.9609
                        CHANNELS 6 Xposition Yposition Zposition Zrotation Xrotation Yrotation
                        End Site
                        {
                          OFFSET -0.0147 -0.0181 0.0096
                        }
                      }
                    }
                  }
                  JOINT rPinky1
                  {
                    OFFSET -4.9141 -1.269 0.3592
                    CHANNELS 6 Xposition Yposition Zposition Zrotation Xrotation Yrotation
                    JOINT rPinky2
                    {
                      OFFSET -3.1477 -1.685 0.8462
                      CHANNELS 6 Xposition Yposition Zposition Zrotation Xrotation Yrotation
                      JOINT rPinky2_End
                      {
                        OFFSET -0.8055 -1.585 0.7955
                        CHANNELS 6 Xposition Yposition Zposition Zrotation Xrotation Yrotation
                        End Site
                        {
                          OFFSET -0.0081 -0.0158 0.008
                        }
                      }
                    }
                  }
                }
              }
            }
          }
        }
      }
    }
  }
  JOINT lThigh
  {
    OFFSET 8.367 -8.2066 0.5982
    CHANNELS 6 Xposition Yposition Zposition Zrotation Xrotation Yrotation
    JOINT lShin
    {
      OFFSET 2.1923 -43.463 -0.4932
      CHANNELS 6 Xposition Yposition Zposition Zrotation Xrotation Yrotation
      JOINT lFoot
      {
        OFFSET 0.7333 -45.8593 -2.6451
        CHANNELS 6 Xposition Yposition Zposition Zrotation Xrotation Yrotation
        End Site
        {
          OFFSET 2.6618 -4.2699 12.3931
        }
      }
    }
  }
  JOINT rThigh
  {
    OFFSET -8.367 -8.2066 0.5982
    CHANNELS 6 Xposition Yposition Zposition Zrotation Xrotation Yrotation
    JOINT rShin
    {
      OFFSET -2.1923 -43.463 -0.4931
      CHANNELS 6 Xposition Yposition Zposition Zrotation Xrotation Yrotation
      JOINT rFoot
      {
        OFFSET -0.7333 -45.8593 -2.6451
        CHANNELS 6 Xposition Yposition Zposition Zrotation Xrotation Yrotation
        End Site
        {
          OFFSET -2.6618 -4.2699 12.3931
        }
      }
    }
  }
}
MOTION
Frames:	4
Frame Time:	0.0333333
0 90.174 2.4664 0 0 -0 0 -1.186 -1.5018 0 0 -0 0 9.964 0.2134 0 0 -0 0 13.134 -3.2573 0 0 -0 0 20.686 -1.6905 0 0 -0 0 7.238 -0.1237 0 0 -0 1.7069 20.075 5.0056 0 0 -0 13.6458 -0.047 -4.849 1.66051 0.0835086 5.75766 28.3255 -0.9759 2.2888 -0.0175111 0.895433 15.7816 22.1583 -0.53 10.8316 7.95139e-016 -1.98785e-016 -0 0.786 0.112 2.5817 5.46658e-016 -3.97569e-016 -0 0.3601 -0.878 4.2331 5.96354e-016 0 -0 1.8127 -1.216 2.2227 3.97569e-016 1.98785e-016 9.54166e-015 0.9571 1.114 1.7695 1.49089e-016 -3.97569e-016 -0 4.1246 0.487 4.1451 6.4605e-016 0 3.18055e-015 3.4052 -1.454 2.7682 5.96354e-016 0 3.18055e-015 1.4531 -1.795 1.2713 8.94531e-016 -1.98785e-016 6.36111e-015 5.6954 0.21 2.1184 6.4605e-016 0 3.18055e-015 3.9766 -1.54 2.3863 5.96354e-016 0 3.18055e-015 1.4042 -1.926 1.125 8.94531e-016 -1.98785e-016 6.36111e-015 2.0956 0.66 -0.3894 1.49089e-016 -3.97569e-016 -0 5.0395 -0.09 2.4971 6.4605e-016 0 3.18055e-015 3.7921 -1.552 1.4806 5.96354e-016 0 3.18055e-015 1.4655 -1.808 0.9609 8.94531e-016 -1.98785e-016 6.36111e-015 4.9141 -1.269 0.3591 6.4605e-016 0 3.18055e-015 3.1477 -1.685 0.8462 5.96354e-016 0 3.18055e-015 0.8055 -1.585 0.7955 8.94531e-016 -1.98785e-016 6.36111e-015 -1.7069 20.075 5.0056 0 0 -0 -13.6458 -0.047 -4.849 -1.4496 0.0636048 -5.0245 -28.3255 -0.9759 2.2888 -1.74811 1.20616 -16.8394 -22.1583 -0.53 10.8316 -1.19271e-015 1.98785e-016 -3.18055e-015 -0.786 0.112 2.5817 -3.97569e-016 1.98785e-016 -3.18055e-015 -0.3601 -0.878 4.2331 -2.98177e-016 1.98785e-016 -3.18055e-015 -1.8127 -1.216 2.2227 -2.98177e-016 3.97569e-016 -0 -0.9571 1.114 1.7695 4.96962e-016 0 -6.36111e-015 -4.1246 0.487 4.1451 -9.93923e-017 3.97569e-016 -0 -3.4052 -1.454 2.7682 -8.94531e-016 5.96354e-016 -0 -1.4531 -1.795 1.2713 -3.97569e-016 3.97569e-016 -0 -5.6954 0.21 2.1184 -9.93923e-017 3.97569e-016 -0 -3.9766 -1.54 2.3863 -8.94531e-016 5.96354e-016 -0 -1.4042 -1.926 1.125 -3.97569e-016 3.97569e-016 -0 -2.0956 0.66 -0.3894 4.96962e-016 0 -6.36111e-015 -5.0395 -0.09 2.4971 -9.93923e-017 3.97569e-016 -0 -3.7921 -1.552 1.4806 -8.94531e-016 5.96354e-016 -0 -1.4655 -1.808 0.9609 -3.97569e-016 3.97569e-016 -0 -4.9141 -1.269 0.3592 -9.93923e-017 3.97569e-016 -0 -3.1477 -1.685 0.8462 -8.94531e-016 5.96354e-016 -0 -0.8055 -1.585 0.7955 -3.97569e-016 3.97569e-016 -0 8.367 -8.2066 0.5982 -4.66115 -1.03232 0.120763 2.1923 -43.463 -0.4932 0.00990601 1.55097 0.177175 0.7333 -45.8593 -2.6451 4.65196 -0.54114 -0.255042 -8.367 -8.2066 0.5982 4.66115 -1.03222 -0.120763 -2.1923 -43.463 -0.4931 -0.00990459 1.5509 -0.177176 -0.7333 -45.8593 -2.6451 -4.65196 -0.541171 0.255041 
2.17932 25.8044 8.5248 -1.40334e-014 2.29846e-019 -90.0019 0 -1.186 -1.5018 -0.334935 3.09359 -0.204062 0 9.964 0.2134 -0.660263 6.18831 -0.390825 -8.88178e-016 13.134 -3.2573 -0.660265 6.1883 -0.390824 0 20.686 -1.6905 0.0718536 0.0855155 -0.222103 0 7.238 -0.1237 0.160015 0.231937 -0.442705 1.7069 20.075 5.0056 -23.5398 2.27152 -6.303 13.6458 -0.047 -4.849 -5.21243 3.58064 -9.3271 28.3255 -0.9759 2.2888 -40.4347 0.830283 -3.55066 22.1583 -0.53 10.8316 32.1392 -11.7049 3.97216 0.786 0.112 2.5817 3.18055e-015 0 -7.95139e-016 0.3601 -0.878 4.2331 -0 0 7.95139e-016 1.8127 -1.216 2.2227 -3.18055e-015 -7.95139e-016 -0 0.9571 1.114 1.7695 3.18055e-015 -1.59028e-015 -7.95139e-016 4.1246 0.487 4.1451 -1.10348e-030 7.95139e-015 7.95139e-015 3.4052 -1.454 2.7682 1.10348e-032 -7.95139e-016 7.95139e-016 1.4531 -1.795 1.2713 2.20695e-032 -7.95139e-016 1.59028e-015 5.6954 0.21 2.1184 -1.10348e-030 7.95139e-015 7.95139e-015 3.9766 -1.54 2.3863 1.10348e-032 -7.95139e-016 7.95139e-016 1.4042 -1.926 1.125 2.20695e-032 -7.95139e-016 1.59028e-015 2.0956 0.66 -0.3894 3.18055e-015 -1.59028e-015 -7.95139e-016 5.0395 -0.09 2.4971 -1.10348e-030 7.95139e-015 7.95139e-015 3.7921 -1.552 1.4806 1.10348e-032 -7.95139e-016 7.95139e-016 1.4655 -1.808 0.9609 2.20695e-032 -7.95139e-016 1.59028e-015 4.9141 -1.269 0.3591 -1.10348e-030 7.95139e-015 7.95139e-015 3.1477 -1.685 0.8462 1.10348e-032 -7.95139e-016 7.95139e-016 0.8055 -1.585 0.7955 2.20695e-032 -7.95139e-016 1.59028e-015 -1.7069 20.075 5.0056 12.6749 -0.16204 3.05666 -13.6458 -0.047 -4.849 50.2138 26.6559 -5.53544 -28.3255 -0.9759 2.2888 -23.8478 -28.9572 5.55908 -22.1583 -0.53 10.8316 -20.2527 4.23933 -17.8546 -0.786 0.112 2.5817 -3.18055e-015 7.15625e-015 3.18055e-015 -0.3601 -0.878 4.2331 -3.18055e-015 4.77083e-015 2.38542e-015 -1.8127 -1.216 2.2227 6.62086e-032 4.77083e-015 -7.95139e-016 -0.9571 1.114 1.7695 -3.18055e-015 7.95139e-016 3.18055e-015 -4.1246 0.487 4.1451 -3.18055e-015 -1.86858e-014 1.03368e-014 -3.4052 -1.454 2.7682 -1.54487e-031 5.56597e-015 1.59028e-015 -1.4531 -1.795 1.2713 -4.96564e-032 1.19271e-015 2.38542e-015 -5.6954 0.21 2.1184 -3.18055e-015 -1.86858e-014 1.03368e-014 -3.9766 -1.54 2.3863 -1.54487e-031 5.56597e-015 1.59028e-015 -1.4042 -1.926 1.125 -4.96564e-032 1.19271e-015 2.38542e-015 -2.0956 0.66 -0.3894 -3.18055e-015 7.95139e-016 3.18055e-015 -5.0395 -0.09 2.4971 -3.18055e-015 -1.86858e-014 1.03368e-014 -3.7921 -1.552 1.4806 -1.54487e-031 5.56597e-015 1.59028e-015 -1.4655 -1.808 0.9609 -4.96564e-032 1.19271e-015 2.38542e-015 -4.9141 -1.269 0.3592 -3.18055e-015 -1.86858e-014 1.03368e-014 -3.1477 -1.685 0.8462 -1.54487e-031 5.56597e-015 1.59028e-015 -0.8055 -1.585 0.7955 -4.96564e-032 1.19271e-015 2.38542e-015 8.367 -8.2066 0.5982 143.85 -51.1362 157.621 2.1923 -43.463 -0.4932 166.285 64.6531 -162.842 0.7333 -45.8593 -2.6451 5.70211 5.91618 3.01873 -8.367 -8.2066 0.5982 -143.823 -51.1301 -157.603 -2.1923 -43.463 -0.4931 -166.202 64.6493 162.758 -0.7333 -45.8593 -2.6451 -5.68494 5.91988 -2.98934 
2.13897 26.2072 8.5248 0.443924 -1.09899e-005 -90.0028 0 -1.186 -1.5018 -0.332513 3.48486 -0.20784 0 9.964 0.2134 -0.65415 6.97086 -0.39656 8.88178e-016 13.134 -3.2573 -0.654151 6.97086 -0.396519 0 20.686 -1.6905 0.133535 0.182271 -0.445608 1.77636e-015 7.238 -0.1237 0.256273 0.498338 -0.89598 1.7069 20.075 5.0056 -23.0537 1.69742 -7.04745 13.6458 -0.047 -4.849 -5.21244 3.58065 -9.32709 28.3255 -0.9759 2.2888 -40.4347 0.830267 -3.55069 22.1583 -0.53 10.8316 32.3352 -13.2882 3.52213 0.786 0.112 2.5817 3.41756e-006 -1.45805e-006 -4.61811e-006 0.3601 -0.878 4.2331 -6.17947e-031 5.56597e-015 6.36111e-015 1.8127 -1.216 2.2227 3.11228e-007 -3.92885e-006 2.63829e-006 0.9571 1.114 1.7695 -6.36111e-015 0 -7.95139e-016 4.1246 0.487 4.1451 3.41756e-006 -1.45805e-006 -4.61811e-006 3.4052 -1.454 2.7682 -6.36111e-015 5.56597e-015 6.36111e-015 1.4531 -1.795 1.2713 3.11228e-007 -3.92885e-006 2.63829e-006 5.6954 0.21 2.1184 3.41756e-006 -1.45805e-006 -4.61811e-006 3.9766 -1.54 2.3863 -6.36111e-015 5.56597e-015 6.36111e-015 1.4042 -1.926 1.125 3.11228e-007 -3.92885e-006 2.63829e-006 2.0956 0.66 -0.3894 -6.36111e-015 0 -7.95139e-016 5.0395 -0.09 2.4971 3.41756e-006 -1.45805e-006 -4.61811e-006 3.7921 -1.552 1.4806 -6.36111e-015 5.56597e-015 6.36111e-015 1.4655 -1.808 0.9609 3.11228e-007 -3.92885e-006 2.63829e-006 4.9141 -1.269 0.3591 3.41756e-006 -1.45805e-006 -4.61811e-006 3.1477 -1.685 0.8462 -6.36111e-015 5.56597e-015 6.36111e-015 0.8055 -1.585 0.7955 3.11228e-007 -3.92885e-006 2.63829e-006 -1.7069 20.075 5.0056 13.0674 -0.671947 4.17133 -13.6458 -0.047 -4.849 49.4027 26.6182 -5.54207 -28.3255 -0.9759 2.2888 -23.8855 -28.951 5.16114 -22.1583 -0.53 10.8316 -20.4617 2.40489 -17.9108 -0.786 0.112 2.5817 -3.18055e-015 7.15625e-015 -0 -0.3601 -0.878 4.2331 3.64147e-031 8.74653e-015 -2.38542e-015 -1.8127 -1.216 2.2227 -6.36111e-015 5.96354e-015 -1.59028e-015 -0.9571 1.114 1.7695 -3.18055e-015 3.97569e-015 -0 -4.1246 0.487 4.1451 6.36111e-015 -2.22639e-014 5.56597e-015 -3.4052 -1.454 2.7682 -3.18055e-015 7.95139e-016 -0 -1.4531 -1.795 1.2713 2.48282e-031 5.96354e-015 -2.38542e-015 -5.6954 0.21 2.1184 6.36111e-015 -2.22639e-014 5.56597e-015 -3.9766 -1.54 2.3863 -3.18055e-015 7.95139e-016 -0 -1.4042 -1.926 1.125 2.48282e-031 5.96354e-015 -2.38542e-015 -2.0956 0.66 -0.3894 -3.18055e-015 3.97569e-015 -0 -5.0395 -0.09 2.4971 6.36111e-015 -2.22639e-014 5.56597e-015 -3.7921 -1.552 1.4806 -3.18055e-015 7.95139e-016 -0 -1.4655 -1.808 0.9609 2.48282e-031 5.96354e-015 -2.38542e-015 -4.9141 -1.269 0.3592 6.36111e-015 -2.22639e-014 5.56597e-015 -3.1477 -1.685 0.8462 -3.18055e-015 7.95139e-016 -0 -0.8055 -1.585 0.7955 2.48282e-031 5.96354e-015 -2.38542e-015 8.367 -8.2066 0.5982 143.832 -51.1642 157.546 2.1923 -43.463 -0.4932 166.172 65.0377 -162.771 0.7333 -45.8593 -2.6451 5.55366 5.69255 3.06095 -8.367 -8.2066 0.5982 -143.805 -51.158 -157.528 -2.1923 -43.463 -0.4931 -166.088 65.0332 162.685 -0.7333 -45.8593 -2.6451 -5.53566 5.69582 -3.03352 
2.09873 26.6098 8.5248 0.88797 -2.90064e-005 -90.0037 0 -1.186 -1.5018 -0.329925 3.87917 -0.211644 -1.77636e-015 9.964 0.2134 -0.647683 7.75946 -0.402247 0 13.134 -3.2573 -0.647683 7.75946 -0.40224 0 20.686 -1.6905 0.195588 0.278734 -0.669338 1.77636e-015 7.238 -0.1237 0.354787 0.764346 -1.35038 1.7069 20.075 5.0056 -22.5745 1.11628 -7.7878 13.6458 -0.047 -4.849 -5.21243 3.58065 -9.32711 28.3255 -0.9759 2.2888 -40.4347 0.830266 -3.55067 22.1583 -0.53 10.8316 32.5203 -14.8785 3.073 0.786 0.112 2.5817 6.36111e-015 1.19271e-014 5.56597e-015 0.3601 -0.878 4.2331 3.18055e-015 1.03368e-014 5.56597e-015 1.8127 -1.216 2.2227 -6.36111e-015 8.74653e-015 7.15625e-015 0.9571 1.114 1.7695 9.54166e-015 7.95139e-016 -7.95139e-016 4.1246 0.487 4.1451 3.18055e-015 1.03368e-014 6.36111e-015 3.4052 -1.454 2.7682 3.18055e-015 1.19271e-014 6.36111e-015 1.4531 -1.795 1.2713 6.36111e-015 1.11319e-014 7.15625e-015 5.6954 0.21 2.1184 3.18055e-015 1.03368e-014 6.36111e-015 3.9766 -1.54 2.3863 3.18055e-015 1.19271e-014 6.36111e-015 1.4042 -1.926 1.125 6.36111e-015 1.11319e-014 7.15625e-015 2.0956 0.66 -0.3894 9.54166e-015 7.95139e-016 -7.95139e-016 5.0395 -0.09 2.4971 3.18055e-015 1.03368e-014 6.36111e-015 3.7921 -1.552 1.4806 3.18055e-015 1.19271e-014 6.36111e-015 1.4655 -1.808 0.9609 6.36111e-015 1.11319e-014 7.15625e-015 4.9141 -1.269 0.3591 3.18055e-015 1.03368e-014 6.36111e-015 3.1477 -1.685 0.8462 3.18055e-015 1.19271e-014 6.36111e-015 0.8055 -1.585 0.7955 6.36111e-015 1.11319e-014 7.15625e-015 -1.7069 20.075 5.0056 13.4707 -1.17513 5.29192 -13.6458 -0.047 -4.849 48.5913 26.5806 -5.54925 -28.3255 -0.9759 2.2888 -23.9232 -28.9446 4.76314 -22.1583 -0.53 10.8316 -20.6733 0.562869 -17.9738 -0.786 0.112 2.5817 8.27607e-032 -1.98785e-015 2.38542e-015 -0.3601 -0.878 4.2331 3.18055e-015 -1.59028e-015 5.56597e-015 -1.8127 -1.216 2.2227 6.36111e-015 -3.18055e-015 4.77083e-015 -0.9571 1.114 1.7695 -3.18055e-015 -7.95139e-016 -0 -4.1246 0.487 4.1451 9.54166e-015 -2.8625e-014 1.19271e-014 -3.4052 -1.454 2.7682 6.36111e-015 -4.37326e-015 2.38542e-015 -1.4531 -1.795 1.2713 3.18055e-015 0 -2.38542e-015 -5.6954 0.21 2.1184 9.54166e-015 -2.8625e-014 1.19271e-014 -3.9766 -1.54 2.3863 6.36111e-015 -4.37326e-015 2.38542e-015 -1.4042 -1.926 1.125 3.18055e-015 0 -2.38542e-015 -2.0956 0.66 -0.3894 -3.18055e-015 -7.95139e-016 -0 -5.0395 -0.09 2.4971 9.54166e-015 -2.8625e-014 1.19271e-014 -3.7921 -1.552 1.4806 6.36111e-015 -4.37326e-015 2.38542e-015 -1.4655 -1.808 0.9609 3.18055e-015 0 -2.38542e-015 -4.9141 -1.269 0.3592 9.54166e-015 -2.8625e-014 1.19271e-014 -3.1477 -1.685 0.8462 6.36111e-015 -4.37326e-015 2.38542e-015 -0.8055 -1.585 0.7955 3.18055e-015 0 -2.38542e-015 8.367 -8.2066 0.5982 143.815 -51.1919 157.472 2.1923 -43.463 -0.4932 166.055 65.4223 -162.697 0.7333 -45.8593 -2.6451 5.4053 5.46924 3.10282 -8.367 -8.2066 0.5982 -143.788 -51.1856 -157.454 -2.1923 -43.463 -0.4931 -165.97 65.4172 162.609 -0.7333 -45.8593 -2.6451 -5.38653 5.47208 -3.07728 
